<?xml version="1.0" encoding="UTF-8" standalone="no"?>
<svg width="66px" height="80px" viewBox="0 0 66 80" version="1.1" xmlns="http://www.w3.org/2000/svg" xmlns:xlink="http://www.w3.org/1999/xlink" xmlns:sketch="http://www.bohemiancoding.com/sketch/ns">
    <!-- Generator: Sketch 3.3.2 (12043) - http://www.bohemiancoding.com/sketch -->
    <title>logo</title>
    <desc>Created with Sketch.</desc>
    <defs></defs>
    <g id="Page-1" stroke="none" stroke-width="1" fill="none" fill-rule="evenodd" sketch:type="MSPage">
        <g id="logo" sketch:type="MSLayerGroup">
            <g id="Layer_3" sketch:type="MSShapeGroup">
                <g id="Group">
                    <path d="M0.358974359,16.7692308 L0.358974359,65.3846154 L34,79.5384615 L65.6923077,66 L65.6923077,0 L0.358974359,16.7692308 Z" id="Shape" fill="#053B47"></path>
                    <g transform="translate(13.333333, 18.461538)" id="Shape">
                        <path d="M20,25.025641 L23.7948718,25.8974359 L23.7948718,34.7692308 L20,33.4871795 L20,25.025641 Z" fill="#6FC9EB"></path>
                        <path d="M20,22.6666667 L20,22.8205128"></path>
                        <path d="M19.8974359,11.3846154 L19.8974359,21.025641 L30.3589744,17.6923077 L30.3589744,23.5897436 L23.7948718,25.8974359 L23.7948718,34.7692308 L30.2051282,32.3589744 L30.2051282,45.4358974 L40,41.3846154 L40,5.38461538 L19.8974359,11.3846154" fill="#21AACF"></path>
                        <path d="M9.48717949,17.4358974 L9.48717949,23.5384615 L16.2564103,26 L20,25.025641 L13.7435897,22.974359 L13.7435897,18.974359 L9.48717949,17.4358974 Z" fill="#21A8CD"></path>
                        <path d="M20,25.025641 L16.1538462,25.8974359 L16.1538462,34.7692308 L20,33.4871795 L20,25.025641 Z" fill="#0B92B2"></path>
                        <path d="M9.79487179,32.3076923 L9.79487179,45.4358974 L13.7435897,43.8974359 L13.7435897,33.8461538 L9.79487179,32.3076923 Z" fill="#21A8CD"></path>
                        <path d="M0,5.38461538 L20,11.3846154 L20,21.025641 L9.58974359,17.6923077 L9.58974359,23.5897436 L16.1538462,25.8974359 L16.1538462,34.7692308 L9.79487179,32.3589744 L9.79487179,45.4358974 L0.0512820513,41.3846154 L0,5.38461538 Z" fill="#6FC9EB"></path>
                        <path d="M30.5128205,17.4358974 L30.5128205,23.5384615 L23.7435897,26 L20,25.025641 L26.2564103,22.974359 L26.2564103,18.974359 L30.5128205,17.4358974 Z" fill="#1689A5"></path>
                        <path d="M30.2051282,32.3076923 L30.2051282,45.4358974 L26.2564103,43.8974359 L26.2564103,33.8461538 L30.2051282,32.3076923 Z" fill="#1689A5"></path>
                        <path d="M0.0512820513,5.43589744 L20.2051282,0.205128205 L40,5.38461538 L20.0512821,11.6410256 L0.0512820513,5.43589744 Z" fill="#21A8CD"></path>
                        <path d="M20.1538462,0.205128205 L20.0512821,11.6410256 L40,5.38461538 L20.1538462,0.205128205 Z" opacity="0.28" fill="#1689A5"></path>
                    </g>
                </g>
            </g>
        </g>
    </g>
</svg>